# xmcd CD database file
#
# Track frame offsets:
#	150
#	19049
#	38032
#	55439
#	80283
#	109746
#	332550
#
# Disc length: 4440 seconds
#
# Revision: 0
# Processed by: cddbd v1.5PL3 Copyright (c) Steve Scherf et al.
# Submitted via: CDex 1.51
#
DISCID=50115607
DTITLE=SOUL'd OUT - ウェカピポ
DYEAR=2003
DGENRE=Rap
TTITLE0=ウェカピポ
TTITLE1=Diggy Diggy Diggy
TTITLE2=HUNTER
TTITLE3=S.O Magic
TTITLE4=ウェカピポ 〜TinyVoice,Production Remix
TTITLE5=データ
TTITLE6=データ
EXTD=YEAR: 2003
EXTT0=
EXTT1=
EXTT2=
EXTT3=
EXTT4=
EXTT5=
EXTT6=
PLAYORDER=
